{"title":"Metallica - Through The Never 2013-(2CD)-FLAC","uid":9007137,"size":768559990,"categoryP":"audio","categoryS":"flac","magnet":"?xt=urn:btih:ecdd1cb23446901dc49ae00683ebd075024f0266&amp;dn=Metallica+-+Through+The+Never+2013-%282CD%29-FLAC&amp;tr=udp%3A%2F%2Ftracker.openbittorrent.com%3A80&amp;tr=udp%3A%2F%2Fopen.demonii.com%3A1337&amp;tr=udp%3A%2F%2Ftracker.coppersurfer.tk%3A6969&amp;tr=udp%3A%2F%2Fexodus.desync.com%3A6969","seeders":1,"leechers":0,"uploader":"realis10","files":13,"time":1381055410,"description":"\nEAC extraction logfile from 25. September 2013, 20:15\n\nMetallica / Through The Never (Music From The Motion Picture) - Disc 1\n\nUsed drive : HL-DT-STDVD-RAM GH15L Adapter: 4 ID: 0\n\nRead mode : Secure\nUtilize accurate stream : Yes\nDefeat audio cache : Yes\nMake use of C2 pointers : No\n\nRead offset correction : 667\nOverread into Lead-In and Lead-Out : No\nFill up missing offset samples with silence : Yes\nDelete leading and trailing silent blocks : No\nNull samples used in CRC calculations : Yes\nUsed interface : Native Win32 interface for Win NT &amp; 2000\n\nUsed output format : User Defined Encoder\nSelected bitrate : 1024 kBit/s\nQuality : High\nAdd ID3 tag : Yes\nCommand line compressor : C:Program Files (x86)Exact Audio CopyFlacflac.exe\nAdditional command line options : -6 -V -T &quot;ARTIST=%artist%&quot; -T &quot;TITLE=%title%&quot; -T &quot;ALBUM=%albumtitle%&quot; -T &quot;DATE=%year%&quot; -T &quot;TRACKNUMBER=%tracknr%&quot; -T &quot;GENRE=%genre%&quot; -T &quot;COMMENT=%comment%&quot; -T &quot;BAND=%albuminterpret%&quot; -T &quot;ALBUMARTIST=%albuminterpret%&quot; -T &quot;COMPOSER=%composer%&quot; %haslyrics%--tag-from-file=LYRICS=&quot;%lyricsfile%&quot;%haslyrics% -T &quot;DISCNUMBER=%cdnumber%&quot; -T &quot;TOTALDISCS=%totalcds%&quot; -T &quot;TOTALTRACKS=%numtracks%&quot; %hascover%--picture=&quot;%coverfile%&quot;%hascover% %source% -o %dest%\n\n\nTOC of the extracted CD\n\nTrack | Start | Length | Start sector | End sector\n---------------------------------------------------------\n1 | 0:00.00 | 2:01.28 | 0 | 9102\n2 | 2:01.28 | 6:19.01 | 9103 | 37528\n3 | 8:20.29 | 4:39.38 | 37529 | 58491\n4 | 12:59.67 | 3:57.32 | 58492 | 76298\n5 | 16:57.24 | 6:54.23 | 76299 | 107371\n6 | 23:51.47 | 8:24.43 | 107372 | 145214\n7 | 32:16.15 | 5:42.60 | 145215 | 170924\n8 | 37:59.00 | 6:18.21 | 170925 | 199295\n\n\nRange status and errors\n\nSelected range\n\nFilename C:UsersDAREKDesktopMETALLICA [2013] [CD1] Through The NeverMetallica - Through The Never (Music From The Motion Picture) - Disc 1.wav\n\nPeak level 100.0 %\nExtraction speed 5.9 X\nRange quality 100.0 %\nCopy CRC 8581EB97\nCopy OK\n\nNo errors occurred\n\nEnd of status report\n\n==========================\n\n\nExact Audio Copy V1.0 beta 3 from 29. August 2011\n\nEAC extraction logfile from 25. September 2013, 20:26\n\nMetallica / Through The Never (Music From The Motion Picture) - Disc 2\n\nUsed drive : HL-DT-STDVD-RAM GH15L Adapter: 4 ID: 0\n\nRead mode : Secure\nUtilize accurate stream : Yes\nDefeat audio cache : Yes\nMake use of C2 pointers : No\n\nRead offset correction : 667\nOverread into Lead-In and Lead-Out : No\nFill up missing offset samples with silence : Yes\nDelete leading and trailing silent blocks : No\nNull samples used in CRC calculations : Yes\nUsed interface : Native Win32 interface for Win NT &amp; 2000\n\nUsed output format : User Defined Encoder\nSelected bitrate : 1024 kBit/s\nQuality : High\nAdd ID3 tag : Yes\nCommand line compressor : C:Program Files (x86)Exact Audio CopyFlacflac.exe\nAdditional command line options : -6 -V -T &quot;ARTIST=%artist%&quot; -T &quot;TITLE=%title%&quot; -T &quot;ALBUM=%albumtitle%&quot; -T &quot;DATE=%year%&quot; -T &quot;TRACKNUMBER=%tracknr%&quot; -T &quot;GENRE=%genre%&quot; -T &quot;COMMENT=%comment%&quot; -T &quot;BAND=%albuminterpret%&quot; -T &quot;ALBUMARTIST=%albuminterpret%&quot; -T &quot;COMPOSER=%composer%&quot; %haslyrics%--tag-from-file=LYRICS=&quot;%lyricsfile%&quot;%haslyrics% -T &quot;DISCNUMBER=%cdnumber%&quot; -T &quot;TOTALDISCS=%totalcds%&quot; -T &quot;TOTALTRACKS=%numtracks%&quot; %hascover%--picture=&quot;%coverfile%&quot;%hascover% %source% -o %dest%\n\n\nTOC of the extracted CD\n\nTrack | Start | Length | Start sector | End sector\n---------------------------------------------------------\n1 | 0:00.00 | 7:01.32 | 0 | 31606\n2 | 7:01.32 | 9:17.55 | 31607 | 73436\n3 | 16:19.12 | 8:25.27 | 73437 | 111338\n4 | 24:44.39 | 5:13.44 | 111339 | 134857\n5 | 29:58.08 | 7:21.72 | 134858 | 168004\n6 | 37:20.05 | 6:21.50 | 168005 | 196629\n7 | 43:41.55 | 4:39.65 | 196630 | 217619\n8 | 48:21.45 | 8:26.66 | 217620 | 255635\n\n\nRange status and errors\n\nSelected range\n\nFilename C:UsersDAREKDesktopMETALLICA [2013] [CD2] Through The NeverMetallica - Through The Never (Music From The Motion Picture) - Disc 2.wav\n\nPeak level 100.0 %\nExtraction speed 6.2 X\nRange quality 100.0 %\nCopy CRC 692CB23E\nCopy OK\n\nNo errors occurred\n\nEnd of status report","torrent":{"xt":"urn:btih:ecdd1cb23446901dc49ae00683ebd075024f0266","amp;dn":"Metallica+-+Through+The+Never+2013-%282CD%29-FLAC","amp;tr":["udp%3A%2F%2Ftracker.openbittorrent.com%3A80","udp%3A%2F%2Fopen.demonii.com%3A1337","udp%3A%2F%2Ftracker.coppersurfer.tk%3A6969","udp%3A%2F%2Fexodus.desync.com%3A6969"],"infoHash":"ecdd1cb23446901dc49ae00683ebd075024f0266","infoHashBuffer":{"type":"Buffer","data":[236,221,28,178,52,70,144,29,196,154,224,6,131,235,208,117,2,79,2,102]},"announce":[],"urlList":[]}}